<svg id="Layer_1" data-name="Layer 1" xmlns="http://www.w3.org/2000/svg" viewBox="0 0 1078.15 1078.15"><defs><style>.cls-1{fill:none;stroke:#24363f;stroke-miterlimit:10;stroke-width:15px;}.cls-2{font-size:210px;fill:#24363f;font-family:Montserrat-SemiBold, Montserrat;font-weight:600;}.cls-3{fill:#590f21;}</style></defs><circle class="cls-1" cx="539.07" cy="539.07" r="531.57"/><text class="cls-2" transform="translate(239.72 483.29)">SoMe</text><path class="cls-3" d="M565.88,909.38H555.53V858.66a5.18,5.18,0,1,0-10.35,0v50.72H410.61V805.86h43.06a5.18,5.18,0,1,0,0-10.35H405.43a5.18,5.18,0,0,0-5.17,5.18V909.38H389.91a5.17,5.17,0,0,0-5.18,5.17V924.9a25.88,25.88,0,0,0,25.88,25.88H545.18a25.88,25.88,0,0,0,25.87-25.88V914.55A5.16,5.16,0,0,0,565.88,909.38ZM560.7,924.9a15.52,15.52,0,0,1-15.52,15.53H534.82v-5.18a5.18,5.18,0,0,0-10.35,0v5.18H431.31v-5.18a5.18,5.18,0,0,0-10.35,0v5.18H410.61a15.53,15.53,0,0,1-15.53-15.53v-5.17H560.7Z" transform="translate(-0.93 -0.93)"/><path class="cls-3" d="M653.86,671.3h10.35a5.18,5.18,0,1,0,0-10.35H653.86a15.52,15.52,0,0,0-15.52,15.52v5.18h-5.18a5.18,5.18,0,1,0,0,10.35h5.18v15.53a5.18,5.18,0,0,0,10.35,0V692h5.17a5.18,5.18,0,1,0,0-10.35h-5.17v-5.18A5.17,5.17,0,0,1,653.86,671.3Z" transform="translate(-0.93 -0.93)"/><path class="cls-3" d="M679.74,640.25H617.63a15.52,15.52,0,0,0-15.52,15.52v10.35a5.18,5.18,0,1,0,10.35,0V655.77a5.17,5.17,0,0,1,5.17-5.17h62.11a5.17,5.17,0,0,1,5.18,5.17v62.11a5.17,5.17,0,0,1-5.18,5.17H617.63a5.17,5.17,0,0,1-5.17-5.17v-31a5.18,5.18,0,1,0-10.35,0v31a15.53,15.53,0,0,0,15.52,15.53h62.11a15.53,15.53,0,0,0,15.53-15.53V655.77A15.52,15.52,0,0,0,679.74,640.25Z" transform="translate(-0.93 -0.93)"/><path class="cls-3" d="M628,847.27a20.71,20.71,0,1,0,20.71-20.7A20.71,20.71,0,0,0,628,847.27Zm31.06,0a10.35,10.35,0,1,1-10.35-10.35A10.35,10.35,0,0,1,659,847.27Z" transform="translate(-0.93 -0.93)"/><path class="cls-3" d="M679.74,800.69H617.63a15.52,15.52,0,0,0-15.52,15.53v62.1a15.52,15.52,0,0,0,15.52,15.53h62.11a15.53,15.53,0,0,0,15.53-15.53V868a5.18,5.18,0,0,0-10.35,0v10.35a5.18,5.18,0,0,1-5.18,5.18H617.63a5.18,5.18,0,0,1-5.17-5.18v-62.1a5.18,5.18,0,0,1,5.17-5.18h62.11a5.18,5.18,0,0,1,5.18,5.18v31a5.18,5.18,0,0,0,10.35,0v-31A15.53,15.53,0,0,0,679.74,800.69Z" transform="translate(-0.93 -0.93)"/><path class="cls-3" d="M501,701.58a5.16,5.16,0,0,0,5.07.2l31-15.52a5.18,5.18,0,0,0,0-9.22l-31-15.52a5.17,5.17,0,0,0-7.5,4.6v31.06A5.15,5.15,0,0,0,501,701.58ZM509,674.51l14.28,7.14L509,688.79Z" transform="translate(-0.93 -0.93)"/><path class="cls-3" d="M514.12,728.23a46.58,46.58,0,1,0-46.58-46.58A46.57,46.57,0,0,0,514.12,728.23Zm0-82.81a36.23,36.23,0,1,1-36.23,36.23A36.23,36.23,0,0,1,514.12,645.42Z" transform="translate(-0.93 -0.93)"/><path class="cls-3" d="M565.88,748.93a5.16,5.16,0,0,0,4.14-2.07l15.53-20.7a5.18,5.18,0,0,0-8.29-6.21l-15.52,20.7a5.17,5.17,0,0,0,4.14,8.28Z" transform="translate(-0.93 -0.93)"/><path class="cls-3" d="M577.26,767.56a5.16,5.16,0,0,0,7.25,1l20.7-15.53a5.18,5.18,0,1,0-6.21-8.28l-20.7,15.53a5.17,5.17,0,0,0-1,7.24Z" transform="translate(-0.93 -0.93)"/><path class="cls-3" d="M628,779a5.17,5.17,0,0,0-6-4.18l-.21,0L595.9,780a5.2,5.2,0,1,0,1,10.35h1l25.87-5.18a5.18,5.18,0,0,0,4.19-6C628,779.09,628,779,628,779Z" transform="translate(-0.93 -0.93)"/><path class="cls-3" d="M389.91,780H452a5.18,5.18,0,0,0,5.17-5.18V692a5.17,5.17,0,0,0-5.17-5.17H389.91a5.17,5.17,0,0,0-5.18,5.17v82.81A5.18,5.18,0,0,0,389.91,780Zm5.17-82.81h51.76v72.46H395.08Z" transform="translate(-0.93 -0.93)"/><path class="cls-3" d="M431.31,707.53H421a5.18,5.18,0,0,0,0,10.35h10.35a5.18,5.18,0,1,0,0-10.35Z" transform="translate(-0.93 -0.93)"/><path class="cls-3" d="M431.31,728.23h-20.7a5.18,5.18,0,1,0,0,10.35h20.7a5.18,5.18,0,1,0,0-10.35Z" transform="translate(-0.93 -0.93)"/><path class="cls-3" d="M431.31,748.93h-20.7a5.18,5.18,0,1,0,0,10.35h20.7a5.18,5.18,0,1,0,0-10.35Z" transform="translate(-0.93 -0.93)"/><path class="cls-3" d="M561.32,778.43a5.19,5.19,0,0,0-9,5.18l22.82,39.49-82.81,31h-.77l-13.46,7.77-9,5.17A10.32,10.32,0,0,1,455,863.31l-10.35-17.9a10.35,10.35,0,0,1,3.88-13.67l17.9-10.35,12.94,22.41a5.2,5.2,0,0,0,9.7-2.57,5.06,5.06,0,0,0-.69-2.6l-13.35-23.09L540,762l2.12,3.67a5.2,5.2,0,0,0,9-5.18l-5.18-9a5.25,5.25,0,0,0-7.81-1.4l-72.46,59.73-22.05,12.73A20.7,20.7,0,0,0,434.11,846l-5.18,3a15.52,15.52,0,0,0,3.73,28.46,15.29,15.29,0,0,0,4,.52,15.78,15.78,0,0,0,7.76-2.07l5.17-2.95a20.06,20.06,0,0,0,9.06,5.38,19.6,19.6,0,0,0,5.44.73,20.38,20.38,0,0,0,10.35-2.8l4.5-2.59,10.35,18a15.51,15.51,0,1,0,26.87-15.51h0l-9.42-16.41,77.64-29.14a5.19,5.19,0,0,0,2.69-7.4ZM439.08,866.88a5.17,5.17,0,1,1-5.18-9l4.5-2.59,5.18,9Zm68.11,14.5a5.19,5.19,0,0,1,.51,3.93,5.2,5.2,0,0,1-9.47,1.24l-10.35-18,8.59-4.91h.42Z" transform="translate(-0.93 -0.93)"/></svg>