<svg id="Layer_1" data-name="Layer 1" xmlns="http://www.w3.org/2000/svg" viewBox="0 0 987.96 1054.6"><defs><style>.cls-1{fill:#d9c4a9;}</style></defs><path class="cls-1" d="M915.57,527.14c-7,0-12.7,5-12.7,11s5.7,11,12.7,11h46.79v33.19a11,11,0,0,0,22,0V538.14a11,11,0,0,0-11-11Z" transform="translate(0 0)"/><path class="cls-1" d="M973.46,596.83a14.51,14.51,0,0,1-14.5-14.5V552.74H915.67c-8.9,0-16.2-6.5-16.2-14.5s7.3-14.5,16.2-14.5h57.79a14.51,14.51,0,0,1,14.5,14.5v44.19A14.49,14.49,0,0,1,973.46,596.83Zm-57.79-66.19c-5,0-9.2,3.5-9.2,7.5s4.2,7.5,9.2,7.5H966v36.59a7.5,7.5,0,0,0,15,0h0V538a7.49,7.49,0,0,0-7.48-7.5H915.67Z" transform="translate(0 0)"/><path class="cls-1" d="M554,393.55v44.09a11,11,0,0,0,22,0V393.55a11,11,0,1,0-22,0Z" transform="translate(0 0)"/><path class="cls-1" d="M565,452.14a14.51,14.51,0,0,1-14.5-14.5V393.55a14.5,14.5,0,1,1,29,0h0v44.09A14.51,14.51,0,0,1,565,452.14Zm0-66.09a7.49,7.49,0,0,0-7.5,7.48v44.11a7.5,7.5,0,0,0,15,0h0V393.55a7.49,7.49,0,0,0-7.48-7.5Z" transform="translate(0 0)"/><path class="cls-1" d="M565,279.26l42.9,42.89a11,11,0,0,1,0,15.56l0,0a10.92,10.92,0,0,1-15.44.06l-.06-.06L576,321.55v27.9a11,11,0,1,1-22,0v-27.9l-16.2,16.2a11.17,11.17,0,0,1-15.7,0,11,11,0,0,1,0-15.56l0,0h0Z" transform="translate(0 0)"/><path class="cls-1" d="M565,364a14.51,14.51,0,0,1-14.5-14.5V330l-10.2,10.2a14.57,14.57,0,0,1-21.22-20l.22-.23.3-.3L565,274.31l45.4,45.39a14.55,14.55,0,0,1-.08,20.58l0,0a14.39,14.39,0,0,1-20.35-.05l-.05-.05-10.3-10.3v19.5A14.67,14.67,0,0,1,565,364Zm-7.5-50.9v36.4a7.5,7.5,0,0,0,15,0h0V313.1l22.3,22.1a7.54,7.54,0,0,0,10.6,0h0a7.53,7.53,0,0,0,2.2-5.4,7.34,7.34,0,0,0-2.1-5.2L565,284.3l-40.4,40.4a7.54,7.54,0,0,0,0,10.6h0a7.67,7.67,0,0,0,10.7,0Z" transform="translate(0 0)"/><path class="cls-1" d="M505.73,998.1a11,11,0,1,1,0-22h0c37.19,0,60-48.5,60.29-49a11,11,0,1,1,20,9.2h0C584.79,938.91,556.79,998.1,505.73,998.1Z" transform="translate(0 0)"/><path class="cls-1" d="M505.73,1001.6a14.5,14.5,0,1,1,0-29h0c34.19,0,56.19-45,57.09-46.9a14.54,14.54,0,0,1,26.4,12.2h0C587.89,940.41,558.89,1001.6,505.73,1001.6ZM576,924.21a7.44,7.44,0,0,0-6.8,4.4c-2.5,5.3-25.5,51-63.49,51a7.5,7.5,0,0,0,0,15h0c48.79,0,76-57.29,77.09-59.79a7.57,7.57,0,0,0-3.7-10,7.83,7.83,0,0,0-3.13-.61Z" transform="translate(0 0)"/><path class="cls-1" d="M480.3,598.83a10.29,10.29,0,0,0-4.2.9,7.31,7.31,0,0,0,.3-.9Z" transform="translate(0 0)"/><path class="cls-1" d="M470.4,605.83l2.4-7.3a1.42,1.42,0,0,0,.2-.6c0-.2.1-.2.1-.2l.8-2.4h6.4v7a6.74,6.74,0,0,0-2.8.6Z" transform="translate(0 0)"/><path class="cls-1" d="M476.5,598.83a7.31,7.31,0,0,0-.3.9,10,10,0,0,1,4.2-.9Z" transform="translate(0 0)"/><path class="cls-1" d="M470.4,605.83l2.4-7.3a1.94,1.94,0,0,0,.2-.7.35.35,0,0,1,.1-.2l.8-2.4h6.4v7a6.74,6.74,0,0,0-2.8.6Z" transform="translate(0 0)"/><path class="cls-1" d="M499.2,600c4.5-15.9,3.8-30-2.2-42.09-13.5-27.6-49.9-38-81.9-47.1-13.9-4-27-7.7-36-12.2-35.19-17.9-53.89-50.9-59.09-103.69-4.7-47.4-12.8-92.4-59.5-122.19-29.8-19-63.59-22.1-96.39-25.1-20.1-1.9-39.2-3.8-57.1-8.9-58.39-16.9-84.19-68.4-81-161.89a11.07,11.07,0,0,0-10.7-11.4A11,11,0,0,0,3.93,75.87v.2c-1.3,38.2-5.2,154.29,97,183.93,20.1,5.9,41,7.8,61.3,9.7,31.4,3,61.3,5.7,86.59,21.79,38.4,24.5,44.9,60.8,49.3,105.8,5.9,60.09,29.1,99.79,71,121.09,10.79,5.5,24.89,9.6,39.89,13.9,27.6,7.8,58.9,16.8,68.2,35.49,4.1,8.3,3.9,18.4-.8,31.2h3.9a10.29,10.29,0,0,0-4.2.9,7.31,7.31,0,0,0,.3-.9c-84.6.7-153.19,69.7-153.19,154.39V896.71c0,85.2,69.29,154.39,154.39,154.39h2.7c85.19,0,154.39-69.29,154.39-154.39V753.12A154.49,154.49,0,0,0,499.2,600Zm-7.8,21.3A132.45,132.45,0,0,1,611.49,735.72c-23.3-9.3-67.7-24-120.09-25.9Zm-22.1-.1v89.09c-64.1,5.4-103,24-123.89,37.8C348,680.33,401.9,625.43,469.3,621.23ZM612.73,896.61A132.55,132.55,0,0,1,480.3,1029h-2.7c-72.9,0-132.39-59.29-132.39-132.39V776.42c9.8-9.2,49-39.6,135-44.8h.7c61.59.1,114.29,21,131.69,28.7Z" transform="translate(0 0)"/><path class="cls-1" d="M480.3,1054.6h-2.7c-87.1,0-157.89-70.79-157.89-157.89V753.22c0-85.59,69-155.89,154.19-157.89,3.5-10.7,3.5-19.3.1-26.2-8.6-17.39-39.1-26.09-66-33.69-14.4-4.1-29.3-8.4-40.59-14.1-43.1-21.9-67-62.4-72.9-123.89-4.3-44-10.6-79.5-47.7-103.2C222.42,278.66,193.22,276,162.32,273h-.5c-19.4-1.8-41.3-3.8-62-9.8-44.79-13-74.89-43.6-89.69-91C-1.57,134-.27,94.67.43,75.77a14.41,14.41,0,0,1,14.8-14h.2a14.58,14.58,0,0,1,14.1,14.9c-3.1,91.79,21.8,142.09,78.49,158.49,18.1,5.2,37.6,7.1,56.5,8.8l.6.1c33,3.1,67,6.3,97.29,25.6,47.9,30.59,56.2,76.49,61.1,124.79,5.1,51.55,23.22,83.69,57.22,100.89,8.6,4.4,21.6,8.1,35.3,12l.2.1c32.7,9.4,69.7,20,83.8,48.9,5.9,11.89,7,25.59,3.5,40.69,77,11.3,134.59,77.7,134.69,156V896.51C638.29,983.71,567.39,1054.6,480.3,1054.6Zm-8.7-452.17c-80.3,3.2-144.79,69.9-144.79,150.79V896.61c0,83.2,67.69,150.89,150.89,150.89h2.7c83.19,0,150.89-67.69,150.89-150.89V753.12c-.1-76.09-57.1-140.49-132.49-149.59l-4.07-.53,1.1-3.9c4.2-15,3.6-28.3-2-39.59-12.8-26.1-48.2-36.3-79.5-45.2l-.2-.1c-14.1-4-27.4-7.8-36.6-12.5-36.29-18.4-55.69-52.3-61-106.49-4.6-46.5-12.6-90.7-57.9-119.59-28.9-18.4-62.09-21.5-94.19-24.6l-.6-.1c-19.2-1.8-39-3.6-57.8-9-30.49-8.8-52-26.5-65.79-54-13.6-27.2-19.4-63.59-17.8-111.49a7.49,7.49,0,0,0-7.27-7.7h-.13a7.4,7.4,0,0,0-7.7,7.07v0h0C6,113.37,2,227.46,101.73,256.26c20,5.8,41.6,7.8,60.7,9.6h.5c31.8,3,61.8,5.9,87.59,22.29,39.8,25.4,46.4,62.5,50.9,108.4,5.7,59,28.4,97.59,69.09,118.39,10.7,5.4,25.2,9.6,39.3,13.7,28.3,8,60.4,17.2,70.3,37.29,4,8.1,4.3,17.7.9,29.2h0l-.2.7a22.51,22.51,0,0,1-.8,2.4v3.9a6.74,6.74,0,0,0-2.8.6l-7.1,3Zm8.7,430.07h-2.7c-74.9,0-135.89-61-135.89-135.89V774.92l1.1-1c10.1-9.4,49.69-40.5,137.19-45.7h.9c61.39.1,113.49,20.3,133.09,29l2.1.9V896.71C616.19,971.51,555.29,1032.5,480.3,1032.5ZM348.81,777.92V896.61A129,129,0,0,0,477.73,1025.5h2.7A129,129,0,0,0,609.29,896.61v-134c-20.6-8.9-70.2-27.4-128.19-27.5h-.5C398.4,740.12,360.11,767.92,348.81,777.92Zm-7.1-23.1.3-6.8A136,136,0,0,1,469.2,617.73l3.7-.2v96.09l-3.2.3c-62.4,5.3-100.89,23.2-122.19,37.3ZM465.8,625A128.22,128.22,0,0,0,349.31,741.62C371.8,728,409,712.42,465.8,707.22Zm150,116.09-5.5-2.2c-22.1-8.8-66.9-23.8-119-25.7l-3.4-.1V617.53l3.8.3A136.07,136.07,0,0,1,615.09,735.22Zm-120.89-34.7c45.69,2.1,85.29,13.6,112.19,23.8-10-55.39-56-98.69-112.19-105.09Z" transform="translate(0 0)"/><path class="cls-1" d="M824.47,742.22H780.38a11,11,0,1,0,0,22h44.09a11,11,0,0,0,0-22Z" transform="translate(0 0)"/><path class="cls-1" d="M824.47,767.82H780.38a14.55,14.55,0,0,1,0-29.1h44.09a14.55,14.55,0,0,1,0,29.1Zm-44.09-22.1a7.55,7.55,0,0,0,0,15.1h44.09a7.55,7.55,0,0,0,0-15.1Z" transform="translate(0 0)"/><path class="cls-1" d="M736.28,742.22h-44.1a11,11,0,0,0,0,22h44.1a11,11,0,0,0,0-22Z" transform="translate(0 0)"/><path class="cls-1" d="M736.28,767.82h-44.1a14.55,14.55,0,0,1,0-29.1h44.1a14.6,14.6,0,0,1,14.2,14.9A14.81,14.81,0,0,1,736.28,767.82Zm-44.2-22.1a7.55,7.55,0,0,0,0,15.1h44.1a7.55,7.55,0,0,0,0-15.1Z" transform="translate(0 0)"/><path class="cls-1" d="M973.46,615.33a11,11,0,0,0-11,11h0v44.2a11,11,0,0,0,22,0v-44.1a11,11,0,0,0-10.9-11.1Z" transform="translate(0 0)"/><path class="cls-1" d="M973.46,685A14.51,14.51,0,0,1,959,670.5V626.4a14.5,14.5,0,0,1,29,0h0v44.1A14.51,14.51,0,0,1,973.46,685Zm0-66.2a7.49,7.49,0,0,0-7.5,7.48V670.4a7.5,7.5,0,1,0,15,0h0V626.3a7.55,7.55,0,0,0-7.5-7.47Z" transform="translate(0 0)"/><path class="cls-1" d="M973.46,700.83a11,11,0,0,0-11,11h0v44.1a11,11,0,0,0,22,0v-44.1A11.1,11.1,0,0,0,973.46,700.83Z" transform="translate(0 0)"/><path class="cls-1" d="M973.46,770.52A14.51,14.51,0,0,1,959,756v-44.1a14.5,14.5,0,0,1,29,0h0V756a14.51,14.51,0,0,1-14.5,14.52Zm0-66.2a7.49,7.49,0,0,0-7.5,7.48V756a7.5,7.5,0,0,0,15,0h0V711.9a7.58,7.58,0,0,0-7.5-7.6Z" transform="translate(0 0)"/><path class="cls-1" d="M882.73,142.46a11,11,0,0,0-11,11v44.1a11,11,0,0,0,22,0h0v-44.1A11,11,0,0,0,882.73,142.46Z" transform="translate(0 0)"/><path class="cls-1" d="M882.73,212.16a14.51,14.51,0,0,1-14.5-14.5v-44.1a14.5,14.5,0,1,1,29,0h0v44.1A14.51,14.51,0,0,1,882.73,212.16Zm0-66.2a7.49,7.49,0,0,0-7.5,7.48v44.12a7.5,7.5,0,0,0,15,0h0v-44.1a7.55,7.55,0,0,0-7.5-7.46Z" transform="translate(0 0)"/><path class="cls-1" d="M882.73,228a11,11,0,0,0-11,11v44.09a11,11,0,0,0,22,0V239A11,11,0,0,0,882.73,228Z" transform="translate(0 0)"/><path class="cls-1" d="M882.73,297.65a14.51,14.51,0,0,1-14.5-14.5V239.06a14.5,14.5,0,1,1,29,0h0v44a14.54,14.54,0,0,1-14.47,14.59Zm0-66.19a7.49,7.49,0,0,0-7.5,7.48v44.11a7.5,7.5,0,0,0,15,0V239a7.55,7.55,0,0,0-7.5-7.5Z" transform="translate(0 0)"/><path class="cls-1" d="M865.87,524.34H821.73a11,11,0,0,0,0,22h44.1a11,11,0,0,0,0-22Z" transform="translate(0 0)"/><path class="cls-1" d="M865.87,549.94H821.73a14.5,14.5,0,0,1,0-29h44.1a14.32,14.32,0,0,1,14.5,14.14v.36A14.51,14.51,0,0,1,865.87,549.94Zm-44.14-22.1a7.47,7.47,0,0,0-7.5,7.4v.2a7.49,7.49,0,0,0,7.48,7.5h44.12a7.5,7.5,0,0,0,0-15h0Z" transform="translate(0 0)"/><path class="cls-1" d="M777.58,524.34h-44.1a11,11,0,0,0,0,22h44.1a11,11,0,0,0,0-22Z" transform="translate(0 0)"/><path class="cls-1" d="M777.58,549.94h-44.1a14.5,14.5,0,0,1,0-29h44.1a14.36,14.36,0,0,1,14.49,14.2v.3a14.38,14.38,0,0,1-14.26,14.5Zm-44.1-22.1a7.47,7.47,0,0,0-7.5,7.4v.2a7.49,7.49,0,0,0,7.48,7.5h44.12a7.5,7.5,0,0,0,0-15Z" transform="translate(0 0)"/><path class="cls-1" d="M689.38,524.34H645.29a11,11,0,0,0,0,22h44.09a11,11,0,0,0,0-22Z" transform="translate(0 0)"/><path class="cls-1" d="M689.38,549.94H645.29a14.5,14.5,0,0,1,0-29h44.09a14.38,14.38,0,0,1,14.5,14.2v.3A14.51,14.51,0,0,1,689.38,549.94Zm-44.09-22.1a7.33,7.33,0,0,0-7.5,7.14v.36a7.49,7.49,0,0,0,7.48,7.5h44.11a7.5,7.5,0,0,0,0-15Z" transform="translate(0 0)"/><path class="cls-1" d="M893.73,107.77c0,7-5,12.7-11,12.7s-11-5.7-11-12.7V61h-33.2a11,11,0,0,1,0-22h44.1a11,11,0,0,1,11,11h0Z" transform="translate(0 0)"/><path class="cls-1" d="M882.73,124c-8,0-14.5-7.3-14.5-16.2V64.47h-29.6a14.5,14.5,0,0,1,0-29h44.1A14.51,14.51,0,0,1,897.27,50V107.8C897.27,116.67,890.73,124,882.73,124Zm-44.2-81.6a7.5,7.5,0,0,0,0,15h36.6v50.3c0,5,3.5,9.2,7.5,9.2s7.5-4.2,7.5-9.2V50a7.49,7.49,0,0,0-7.48-7.5h0Z" transform="translate(0 0)"/><path class="cls-1" d="M554.39,479.14c0-7,5-12.7,11-12.7s11,5.7,11,12.7v46.8h33.1a11,11,0,0,1,0,22h-44.1a11,11,0,0,1-11-11Z" transform="translate(0 0)"/><path class="cls-1" d="M609.49,551.44h-44.1a14.51,14.51,0,0,1-14.5-14.5v-57.8c0-8.9,6.5-16.2,14.5-16.2s14.6,7.3,14.6,16.2v43.3h29.6a14.5,14.5,0,1,1-.1,29Zm-44.1-81.5c-4.1,0-7.5,4.2-7.5,9.2v57.8a7.49,7.49,0,0,0,7.48,7.5h44.12a7.5,7.5,0,0,0,0-15H573v-50.3C573,474.14,569.49,469.94,565.39,469.94Z" transform="translate(0 0)"/><path class="cls-1" d="M794.47,38.87H750.38a11,11,0,0,0,0,22h44.09a11,11,0,0,0,0-22Z" transform="translate(0 0)"/><path class="cls-1" d="M794.47,64.47H750.38a14.5,14.5,0,0,1,0-29h44.09a14.5,14.5,0,0,1,0,29Zm-44.09-22.1a7.5,7.5,0,0,0,0,15h44.09a7.5,7.5,0,0,0,0-15Z" transform="translate(0 0)"/><path class="cls-1" d="M706.28,38.87h-44.1a11,11,0,0,0,0,22h44.1a11,11,0,0,0,0-22Z" transform="translate(0 0)"/><path class="cls-1" d="M706.28,64.47h-44.1a14.5,14.5,0,0,1,0-29h44.1a14.5,14.5,0,0,1,0,29Zm-44.2-22.1a7.5,7.5,0,0,0,0,15h44.1a7.5,7.5,0,0,0,0-15Z" transform="translate(0 0)"/><path class="cls-1" d="M618,38.87h-44.1a11,11,0,0,0,0,22H618a11,11,0,0,0,0-22Z" transform="translate(0 0)"/><path class="cls-1" d="M618,64.47h-44.1a14.5,14.5,0,0,1,0-29H618a14.5,14.5,0,0,1,0,29Zm-44.1-22.1a7.5,7.5,0,0,0,0,15H618a7.5,7.5,0,0,0,0-15Z" transform="translate(0 0)"/><path class="cls-1" d="M529.79,38.87H485.73a11,11,0,0,0,0,22h44.09a11,11,0,0,0,0-22Z" transform="translate(0 0)"/><path class="cls-1" d="M529.79,64.47H485.73a14.5,14.5,0,0,1,0-29h44.09a14.5,14.5,0,0,1,0,29ZM485.6,42.37a7.5,7.5,0,0,0,0,15h44.13a7.5,7.5,0,0,0,0-15Z" transform="translate(0 0)"/><path class="cls-1" d="M441.5,38.87H397.4a11,11,0,0,0,0,22h44.1a11,11,0,0,0,0-22Z" transform="translate(0 0)"/><path class="cls-1" d="M441.5,64.47H397.4a14.5,14.5,0,0,1,0-29h44.1a14.5,14.5,0,0,1,0,29Zm-44.1-22.1a7.5,7.5,0,0,0,0,15h44.1a7.5,7.5,0,0,0,0-15Z" transform="translate(0 0)"/><path class="cls-1" d="M938.73,753.22l-42.89,42.9a10.92,10.92,0,0,1-15.44.06l-.06-.06a11,11,0,0,1,0-15.56l0,0h0l16.2-16.3h-27.9a11,11,0,0,1,0-22h27.9L880.27,726a11.17,11.17,0,0,1,0-15.7,10.92,10.92,0,0,1,15.44-.06l.06.06Z" transform="translate(0 0)"/><path class="cls-1" d="M888.17,802.82a14,14,0,0,1-10.4-4.3,14.39,14.39,0,0,1,.05-20.35l0,0,10.3-10.3h-19.5a14.55,14.55,0,0,1,0-29.1h19.5L878,728.52a14.57,14.57,0,0,1,20.5-20.7l45.39,45.4-45.39,45.4A14.43,14.43,0,0,1,888.17,802.82Zm-19.6-57.1a7.55,7.55,0,0,0,0,15.1H905L882.73,783a7.54,7.54,0,0,0,0,10.6h0a7.53,7.53,0,0,0,5.4,2.2,7.34,7.34,0,0,0,5.2-2.1l40.49-40.5-40.49-40.4a7.57,7.57,0,1,0-10.93,10.47l.33.33,22.2,22.2h-36.4Z" transform="translate(0 0)"/><path class="cls-1" d="M364.31,50a11,11,0,0,1-11,11H328.73l16,16A11,11,0,0,1,345,92.55l0,0a11.12,11.12,0,0,1-7.9,3.3,11.43,11.43,0,0,1-7.8-3.2l-43-42.9,42.9-42.9a11,11,0,1,1,15.5,15.7h0L328.21,39h25a11,11,0,0,1,11.1,10.9Z" transform="translate(0 0)"/><path class="cls-1" d="M337,99.37a14.48,14.48,0,0,1-10.2-4.2l-45.5-45.5,45.42-45.4a14.44,14.44,0,0,1,20.42-.08l.08.08h0a14,14,0,0,1,4.3,10.2,14.44,14.44,0,0,1-4.3,10.4l-10.5,10.4h16.6a14.5,14.5,0,1,1,0,29h-16.1l10,10A14.86,14.86,0,0,1,337,99.37Zm-45.9-49.7,40.4,40.4a7.72,7.72,0,0,0,5.4,2.2,7.09,7.09,0,0,0,5.2-2.2,7.57,7.57,0,0,0,2.3-5.3,7.27,7.27,0,0,0-2.3-5.4l-22-22h33a7.5,7.5,0,0,0,0-15h-33.5L342,20a7.4,7.4,0,0,0,2.3-5.4,7.28,7.28,0,0,0-2.2-5.2,7.54,7.54,0,0,0-10.6,0Z" transform="translate(0 0)"/><path class="cls-1" d="M765.18,287.05a11,11,0,0,0-11-11h-44.1a11,11,0,0,0,0,22h44.1a10.9,10.9,0,0,0,11-10.82Z" transform="translate(0 0)"/><path class="cls-1" d="M754.18,301.65h-44.1a14.5,14.5,0,0,1,0-29h44.1a14.5,14.5,0,0,1,0,29Zm-44.1-22.09a7.5,7.5,0,0,0,0,15h44.1a7.5,7.5,0,0,0,0-15h-44.1Z" transform="translate(0 0)"/><path class="cls-1" d="M679.73,287.05a11,11,0,0,0-11-11H624.49a11,11,0,0,0,0,22h44.09a10.93,10.93,0,0,0,11.15-10.71Z" transform="translate(0 0)"/><path class="cls-1" d="M668.73,301.65H624.59a14.5,14.5,0,0,1,0-29h44.14a14.5,14.5,0,0,1,0,29Zm-44.09-22.09a7.5,7.5,0,0,0,0,15h44.09a7.5,7.5,0,0,0,0-15Z" transform="translate(0 0)"/><path class="cls-1" d="M853.47,287.05a11,11,0,0,0-11-11h-44.1a11,11,0,0,0,0,22h44.1A11,11,0,0,0,853.47,287.05Z" transform="translate(0 0)"/><path class="cls-1" d="M842.47,301.65h-44.1a14.5,14.5,0,0,1,0-29h44.1a14.5,14.5,0,0,1,0,29Zm-44.2-22.09a7.5,7.5,0,0,0,0,15h44.1a7.5,7.5,0,0,0,0-15Z" transform="translate(0 0)"/><path class="cls-1" d="M508.15,791.67H476.39a15.88,15.88,0,0,0,0,31.76h31.76a15.88,15.88,0,0,0,0-31.76Z" transform="translate(0 0)"/></svg>