<svg id="Layer_1" data-name="Layer 1" xmlns="http://www.w3.org/2000/svg" viewBox="0 0 1078.15 1078.15"><defs><style>.cls-1{fill:none;stroke:#24363f;stroke-miterlimit:10;stroke-width:15px;}.cls-2{font-size:210px;fill:#24363f;font-family:Montserrat-SemiBold, Montserrat;font-weight:600;}.cls-3{letter-spacing:-0.01em;}.cls-4{letter-spacing:0em;}.cls-5{fill:#590f21;}</style></defs><circle class="cls-1" cx="539.07" cy="539.07" r="531.57"/><text class="cls-2" transform="translate(185.44 483.29)"><tspan class="cls-3">V</tspan><tspan x="149.94" y="0">ID</tspan><tspan class="cls-4" x="390.38" y="0">E</tspan><tspan x="530.45" y="0">O</tspan></text><path class="cls-5" d="M486.16,854.82H439.53a8.49,8.49,0,0,1-8.49-8.48h0V839a8.49,8.49,0,0,1,8.49-8.48h46.63a8.48,8.48,0,0,1,8.48,8.48h0v7.37A8.47,8.47,0,0,1,486.16,854.82ZM440.9,845h43.87v-4.62H440.9Z" transform="translate(-0.93 -0.93)"/><path class="cls-5" d="M486.16,894.75H439.53a8.49,8.49,0,0,1-8.49-8.49h0V878.9a8.49,8.49,0,0,1,8.49-8.49h46.63a8.49,8.49,0,0,1,8.48,8.49h0v7.36a8.49,8.49,0,0,1-8.48,8.49ZM440.9,884.9h43.87v-4.62H440.9Z" transform="translate(-0.93 -0.93)"/><path class="cls-5" d="M623.87,930.33H414.34a19.8,19.8,0,0,1-19.77-19.76V777.29a19.8,19.8,0,0,1,19.77-19.76H623.87a19.8,19.8,0,0,1,19.76,19.76V910.57A19.79,19.79,0,0,1,623.87,930.33Zm-209.53-163a9.94,9.94,0,0,0-9.94,9.93V910.58a9.94,9.94,0,0,0,9.94,9.93H623.87a10,10,0,0,0,9.93-9.93V777.29a9.94,9.94,0,0,0-9.93-9.93Z" transform="translate(-0.93 -0.93)"/><path class="cls-5" d="M594.74,869.92H529.11a9.36,9.36,0,0,1-9.36-9.36V805.94a9.37,9.37,0,0,1,9.36-9.36h65.63a9.37,9.37,0,0,1,9.36,9.36v54.61A9.36,9.36,0,0,1,594.74,869.92Zm-65.21-9.82h64.74V806.4H529.55Z" transform="translate(-0.93 -0.93)"/><path class="cls-5" d="M711.7,906.4a21.77,21.77,0,0,1-6.31-1l-.31-.1-71.29-26.5V806.27L701.85,781c15.9-5.77,21.88,2.18,24,7.44l.37.9V894.65l-.28.81A14.68,14.68,0,0,1,711.7,906.4Zm-3.37-10.35c5,1.44,6.81.06,8.08-3.13V791.3c-.93-1.86-3.09-4-11.19-1.11L643.61,813.1V872Z" transform="translate(-0.93 -0.93)"/><path class="cls-5" d="M458.49,767.7a65.51,65.51,0,1,1,60-92l0-.32.06.41a65.16,65.16,0,1,1,0,52.71l-.06.4,0-.33a65.56,65.56,0,0,1-60,39.07Zm0-121.23A55.69,55.69,0,1,0,513.64,710l1.1-7.82-1.1-7.83a55.9,55.9,0,0,0-55.15-47.85Zm63.78,55.71,1.1,7.83a55.36,55.36,0,1,0,0-15.62Z" transform="translate(-0.93 -0.93)"/><path class="cls-5" d="M459,728.83a26.67,26.67,0,1,1,26.67-26.67h0A26.67,26.67,0,0,1,459,728.83Zm0-43.47a16.83,16.83,0,1,0,16.83,16.82A16.82,16.82,0,0,0,459,685.36Z" transform="translate(-0.93 -0.93)"/><path class="cls-5" d="M579.25,728.83a26.67,26.67,0,1,1,26.67-26.67,26.67,26.67,0,0,1-26.67,26.67Zm0-43.47a16.83,16.83,0,1,0,16.83,16.82A16.82,16.82,0,0,0,579.25,685.36Z" transform="translate(-0.93 -0.93)"/></svg>