<svg id="Layer_1" data-name="Layer 1" xmlns="http://www.w3.org/2000/svg" viewBox="0 0 1078.15 1078.15"><defs><style>.cls-1{fill:none;stroke:#24363f;stroke-miterlimit:10;stroke-width:15px;}.cls-2{font-size:175px;fill:#24363f;font-family:Montserrat-SemiBold, Montserrat;font-weight:600;}.cls-3{letter-spacing:-0.01em;}.cls-4{fill:#590f21;}</style></defs><circle class="cls-1" cx="539.07" cy="539.07" r="531.57"/><text class="cls-2" transform="translate(120.83 457.32)"><tspan class="cls-3">W</tspan><tspan x="197.57" y="0">EBSITE</tspan></text><path class="cls-4" d="M540,598.29A183.87,183.87,0,0,0,356.13,782.16C356.13,883.71,438.45,966,540,966s183.87-82.33,183.87-183.88A184.07,184.07,0,0,0,540,598.29ZM699,846.58l-52.3,9a274,274,0,0,0,9.62-67.31h55.11A170.61,170.61,0,0,1,699,846.58ZM368.54,788.29h55.11a274,274,0,0,0,9.62,67.31l-52.3-9A170.61,170.61,0,0,1,368.54,788.29ZM381,717.75l52.3-9A274.1,274.1,0,0,0,423.65,776H368.54A170.5,170.5,0,0,1,381,717.75Zm165.16-21a421.91,421.91,0,0,1,65.7,6l21.64,3.73A263,263,0,0,1,644.1,776h-98Zm67.79-6.08a434,434,0,0,0-67.79-6.18V610.89c35.14,3.38,65.66,35.55,83,82.37Zm-80-6.18a434,434,0,0,0-67.79,6.18l-15.17,2.62c17.3-46.83,47.82-79,83-82.38Zm-65.7,18.26a421.91,421.91,0,0,1,65.7-6V776h-98a263,263,0,0,1,10.63-69.6ZM435.9,788.29h98v79.34a423.13,423.13,0,0,1-65.7-6l-21.64-3.74A262.91,262.91,0,0,1,435.9,788.29Zm30.18,85.42a436.35,436.35,0,0,0,67.79,6.21v73.55c-35.14-3.38-65.66-35.55-83-82.38Zm80.05,6.21a436.46,436.46,0,0,0,67.79-6.21l15.17-2.63c-17.3,46.84-47.82,79-83,82.38Zm65.7-18.29a423.13,423.13,0,0,1-65.7,6V788.29h98a262.91,262.91,0,0,1-10.63,69.6ZM656.35,776a274.1,274.1,0,0,0-9.62-67.31l52.3,9A170.5,170.5,0,0,1,711.46,776Zm36.47-71.79-50.12-8.65a169,169,0,0,0-48.76-76.31A172.42,172.42,0,0,1,692.82,704.24Zm-206.76-85a169,169,0,0,0-48.76,76.31l-50.12,8.65A172.42,172.42,0,0,1,486.06,619.28ZM387.18,860.09l50.12,8.65a169.09,169.09,0,0,0,48.76,76.31A172.42,172.42,0,0,1,387.18,860.09Zm206.76,85a169.09,169.09,0,0,0,48.76-76.31l50.12-8.65A172.42,172.42,0,0,1,593.94,945.05Z" transform="translate(-0.93 -0.93)"/></svg>