<svg id="Capa_1" data-name="Capa 1" xmlns="http://www.w3.org/2000/svg" viewBox="0 0 31.41 31.42"><defs><style>.cls-1{fill:#f0f0f0;}</style></defs><path class="cls-1" d="M28.75,7l-.47.15-2.5.22-.71,1.13-.51-.16-2-1.8-.29-.93-.39-1L20.64,3.46l-1.48-.29,0,.67,1.45,1.42.71.83-.8.42-.65-.2-1-.4,0-.78L17.63,4.6l-.42,1.84-1.29.29.13,1,1.67.32L18,6.44l1.38.21L20,7h1l.7,1.41,1.87,1.9-.14.74L22,10.88l-2.61,1.31-1.87,2.25-.25,1H16.6l-1.25-.58-1.22.58.3,1.28.53-.61.93,0-.06,1.15.77.23.77.87L18.63,18l1.44.23,1.67.45.83.1L24,20.35,26.71,22,25,25.33l-1.86.86-.71,1.93-2.7,1.8-.28,1A15.67,15.67,0,0,0,28.75,7Z" transform="translate(0 0)"/><path class="cls-1" d="M17.51,23.92,16.37,21.8l1.05-2.19-1.05-.32-1.18-1.18-2.61-.59-.87-1.81v1.08h-.38L9.08,13.73v-2.5L7.43,8.54,4.81,9H3.05l-.89-.58,1.13-.9-1.13.26A15.69,15.69,0,0,0,15.71,31.42a16,16,0,0,0,2-.14l-.16-1.9s.72-2.83.72-2.93S17.51,23.92,17.51,23.92Z" transform="translate(0 0)"/><path class="cls-1" d="M5.84,5.06l2.79-.38L9.92,4l1.44.42,2.32-.13L14.47,3l1.15.19,2.81-.26.77-.85,1.09-.73,1.54.23.56-.08A15.64,15.64,0,0,0,3.6,5.71h0Zm10.53-3.5L18,.68l1,.59L17.52,2.41l-1.43.14-.64-.41Zm-4.75.13.71.3.93-.3.5.88-2.14.56-1-.6S11.6,1.88,11.62,1.69Z" transform="translate(0 0)"/></svg>