<?xml version="1.0" encoding="UTF-8"?>
<svg id="Layer_1" xmlns="http://www.w3.org/2000/svg" version="1.1" viewBox="0 0 1871 1638">
  <!-- Generator: Adobe Illustrator 29.8.1, SVG Export Plug-In . SVG Version: 2.1.1 Build 2)  -->
  <defs>
    <style>
      .st0 {
        fill: #fff;
      }

      .st1 {
        display: none;
      }

      .st2 {
        fill: #d8c3a8;
      }

      .st3 {
        fill: #fefefe;
      }
    </style>
  </defs>
  <g class="st1">
    <g>
      <path class="st3" d="M1869,247v477l-4.5-14c-8.9-21.4-28.1-37.1-51.1-40.9-585.1-1.8-1170.7-1.8-1755.8,0-28.6,4.7-49.4,27.1-55.6,54.9V247c6.9,32.1,31.4,53.8,64.5,56h1737.1c33.7-2.1,58.2-23.2,65.5-56Z"/>
      <path class="st3" d="M1869,914v477c-3.5-29.6-34.9-55.8-64.5-56H67.5c-33.6,2.1-58.4,23.2-65.5,56v-477c6.2,27.8,27,50.2,55.6,54.9,585.1,1.8,1170.7,1.8,1755.8,0,28.6-4.7,49.4-27.1,55.6-54.9Z"/>
      <path class="st2" d="M1869,724v190c-6.2,27.8-27,50.2-55.6,54.9-585.1,1.8-1170.7,1.8-1755.8,0-28.6-4.7-49.4-27.1-55.6-54.9v-190c6.2-27.8,27-50.2,55.6-54.9,585.1-1.8,1170.7-1.8,1755.8,0,23,3.9,42.2,19.6,51.1,40.9l4.5,14Z"/>
      <path class="st2" d="M1869,1391v190c-6.2,28.3-26.7,48.8-55,55H57c-28.3-6.2-48.8-26.7-55-55v-190c7.1-32.8,31.8-54,65.5-56h1737.1c29.6.3,60.9,26.4,64.5,56Z"/>
      <path class="st2" d="M1814,2c28.3,6.2,48.8,26.7,55,55v190c-7.2,32.8-31.7,54-65.5,56H66.5c-33-2.2-57.5-23.9-64.5-56V57C7.3,34.2,21.1,15.5,43,6.5l14-4.5h1757Z"/>
      <path class="st3" d="M57,2l-14,4.5C21.1,15.5,7.3,34.2,2,57V2h55Z"/>
      <path class="st3" d="M1814,2h55v55c-6.2-28.3-26.7-48.8-55-55Z"/>
      <path class="st3" d="M57,1636H2v-55c6.2,28.3,26.7,48.8,55,55Z"/>
      <path class="st3" d="M1869,1581v55h-55c28.3-6.2,48.8-26.7,55-55Z"/>
    </g>
  </g>
  <rect class="st0" x="2" y="2" width="1867" height="301.8" rx="69.7" ry="69.7"/>
  <rect class="st0" x="2" y="668.1" width="1867" height="301.8" rx="69.7" ry="69.7"/>
  <rect class="st0" x="2" y="1334.2" width="1867" height="301.8" rx="69.7" ry="69.7"/>
</svg>