<?xml version="1.0" encoding="UTF-8"?>
<svg xmlns="http://www.w3.org/2000/svg" version="1.1" viewBox="0 0 2080 2080">
  <defs>
    <style>
      .cls-1 {
        fill: #fff;
      }

      .cls-2 {
        font-family: OpenSans-SemiBold, 'Open Sans';
        font-size: 753.2px;
        font-weight: 600;
      }

      .cls-2, .cls-3, .cls-4 {
        isolation: isolate;
      }

      .cls-2, .cls-5, .cls-4 {
        fill: #3463c4;
      }

      .cls-6 {
        display: none;
      }

      .cls-4 {
        font-family: OpenSans-Light, 'Open Sans';
        font-size: 109.1px;
        font-weight: 300;
        letter-spacing: 0em;
      }
    </style>
  </defs>
  <!-- Generator: Adobe Illustrator 28.7.4, SVG Export Plug-In . SVG Version: 1.2.0 Build 166)  -->
  <g>
    <g id="Layer_1">
      <g class="cls-6">
        <g>
          <path class="cls-5" d="M475.6,989.1c0,92.7-25.7,163.6-77.2,212.7-51.5,49.1-125.6,73.6-222.4,73.6H18.8v-561.7h173.7c89.4,0,158.9,24.1,208.6,72.2,49.7,48.2,74.5,115.9,74.5,203.2ZM378.8,992.1c0-134.5-62.9-201.7-188.6-201.7h-79.5v407.6h65.3c135.2,0,202.9-68.6,202.9-205.9Z"/>
          <path class="cls-5" d="M954,1122.8c0,49.9-18.1,89.1-54.2,117.6-36.1,28.4-85.9,42.6-149.5,42.6s-115.5-9.9-156-29.6v-86.8c25.6,12,52.8,21.5,81.6,28.4,28.8,6.9,55.6,10.4,80.5,10.4,36.4,0,63.2-6.9,80.5-20.7,17.3-13.8,25.9-32.4,25.9-55.7s-7.9-38.8-23.8-53.4c-15.9-14.6-48.7-31.9-98.4-51.9-51.2-20.7-87.3-44.4-108.3-71.1-21-26.6-31.5-58.6-31.5-96s16.6-83.8,49.9-110.6c33.3-26.9,78-40.3,134.1-40.3s107.3,11.8,160.6,35.3l-29.2,74.9c-49.9-21-94.5-31.5-133.7-31.5s-52.3,6.5-67.6,19.4c-15.4,12.9-23.1,30-23.1,51.3s3.1,27.1,9.2,37.5c6.1,10.4,16.3,20.2,30.4,29.4,14.1,9.2,39.4,21.4,76.1,36.5,41.2,17.2,71.5,33.2,90.7,48,19.2,14.9,33.3,31.6,42.3,50.3,9,18.7,13.4,40.7,13.4,66.1Z"/>
          <path class="cls-5" d="M1525.3,1275.3h-106.4l-176.3-254.3-54.2,44.2v210.2h-91.8v-561.7h91.8v268.2c25.1-30.7,50.1-60.3,74.9-88.7l151.8-179.4h104.5c-98.1,115.3-168.4,197.3-210.9,246.3l216.7,315.4Z"/>
        </g>
        <path class="cls-5" d="M2061.1,1177.5c-.5,75.7-13.6,148.9-43.6,218.8-13.1,30.6-37.3,78.9-63.9,117.6-45.7,65.5-97.9,125.3-156.9,179-1-.6-2-1.2-3-1.7,7.9-23.5,16.3-46.9,23.7-70.5,23.5-74.9,45.7-150.2,51.7-229.1,1.2-27.3.2-40.4-6.2-59.8-6.5-19.8-21-29.5-42.1-27.9-24.4,1.8-47.2,10.3-70.3,17.5-24.4,7.6-48.5,16.5-74.6,16.3-37-.3-53.7-19.1-49.2-55.5,1.3-10.7,2.6-18.7,4.6-31.9,6.1-43.4-10.7-93.1-10.8-96,7.5-23.7-1.5-39.1-21.7-52.8-30.5-20.6-30-25.8-9.1-55.6,25.5-36.4,52.8-71.5,74-110.8,14.7-27.3,19.1-55.1,13.8-85.7-21.4-125.5-3.4-245,58.8-356.7,20.4-36.6,45.1-70.3,74.9-99.9,2.7-2.7,5.3-7.2,10-5.1,3.8,1.7,3.3,6.1,3.5,9.6,4.6,76.7,27.1,149,54.1,220.1,29.8,78.5,66.4,154.2,98.4,231.8,25.7,62.3,50.5,124.9,64.5,191.1,8.9,36.4,19.8,88,19.2,137.3Z"/>
        <g>
          <path class="cls-5" d="M84.4,1444c0,13.7-3.6,24-10.7,31-7.2,7-17.7,10.5-31.5,10.5h-19.5v-81.3h22c13,0,22.9,3.4,29.6,10.2,6.8,6.8,10.2,16.7,10.2,29.7ZM78.2,1444.2c0-11.6-3-20.4-8.9-26.3-5.9-5.9-14.6-8.8-26.1-8.8h-15v71.3h13.5c24.3,0,36.4-12.1,36.4-36.2Z"/>
          <path class="cls-5" d="M154.8,1485.4l-1.4-9.6h-.4c-3,3.9-6.2,6.6-9.4,8.3-3.2,1.6-7,2.4-11.4,2.4s-10.6-1.5-13.9-4.6c-3.3-3-5-7.3-5-12.6s2.5-10.5,7.4-13.7c4.9-3.3,12-5,21.3-5.2l11.5-.3v-4c0-5.7-1.2-10.1-3.5-13-2.3-2.9-6.1-4.4-11.3-4.4s-11.4,1.6-17.4,4.7l-2.1-4.8c6.6-3.1,13.2-4.7,19.7-4.7s11.6,1.7,14.9,5.2c3.3,3.5,4.9,8.8,4.9,16.1v40.2h-4.1ZM132.6,1481.5c6.5,0,11.5-1.8,15.3-5.5s5.6-8.8,5.6-15.4v-6l-10.6.4c-8.5.4-14.6,1.7-18.2,4-3.6,2.2-5.4,5.7-5.4,10.5s1.2,6.7,3.5,8.8c2.3,2.1,5.6,3.1,9.8,3.1Z"/>
          <path class="cls-5" d="M237.1,1485.4v-39.2c0-6.1-1.3-10.5-3.8-13.3-2.6-2.8-6.5-4.1-11.9-4.1s-12.5,1.8-15.9,5.5c-3.4,3.7-5,9.6-5,17.8v33.4h-5.5v-60.5h4.7l1.1,8.3h.3c3.9-6.3,10.9-9.5,21-9.5s20.6,7.4,20.6,22.1v39.6h-5.5Z"/>
          <path class="cls-5" d="M354.1,1485.4v-39.7c0-5.9-1.2-10.2-3.4-12.9-2.3-2.7-5.8-4.1-10.6-4.1s-10.8,1.7-13.7,5.1c-3,3.4-4.5,8.8-4.5,16.1v35.4h-5.6v-41.3c0-10.2-4.7-15.3-14-15.3s-11,1.8-13.9,5.5c-2.9,3.7-4.3,9.6-4.3,17.7v33.4h-5.5v-60.5h4.6l1.2,8.3h.3c1.7-3,4-5.3,7.1-7,3.1-1.7,6.5-2.5,10.2-2.5,9.5,0,15.7,3.6,18.4,10.7h.2c2-3.5,4.6-6.1,7.9-8,3.3-1.9,7.1-2.8,11.3-2.8,6.6,0,11.6,1.8,14.9,5.3,3.3,3.5,5,9.1,5,16.8v39.6h-5.5Z"/>
          <path class="cls-5" d="M432.2,1485.4l-1.4-9.6h-.4c-3,3.9-6.2,6.6-9.4,8.3-3.2,1.6-7,2.4-11.4,2.4s-10.6-1.5-13.9-4.6c-3.3-3-5-7.3-5-12.6s2.5-10.5,7.4-13.7c4.9-3.3,12-5,21.3-5.2l11.5-.3v-4c0-5.7-1.2-10.1-3.5-13-2.3-2.9-6.1-4.4-11.3-4.4s-11.4,1.6-17.4,4.7l-2.1-4.8c6.6-3.1,13.2-4.7,19.7-4.7s11.6,1.7,14.9,5.2c3.3,3.5,4.9,8.8,4.9,16.1v40.2h-4.1ZM410,1481.5c6.5,0,11.5-1.8,15.3-5.5s5.6-8.8,5.6-15.4v-6l-10.6.4c-8.5.4-14.6,1.7-18.2,4-3.6,2.2-5.4,5.7-5.4,10.5s1.2,6.7,3.5,8.8c2.3,2.1,5.6,3.1,9.8,3.1Z"/>
          <path class="cls-5" d="M496.1,1423.8c2.6,0,5.3.3,8.2.8l-1.1,5.3c-2.5-.6-5.1-.9-7.8-.9-5.2,0-9.4,2.2-12.7,6.6-3.3,4.4-5,9.9-5,16.6v33.4h-5.5v-60.5h4.7l.6,10.9h.4c2.5-4.5,5.1-7.6,8-9.4,2.8-1.8,6.2-2.7,10.2-2.7Z"/>
          <path class="cls-5" d="M538.5,1458.9l30.9-33.9h6.7l-23.8,25.8,25.9,34.7h-6.6l-23-30.5-9.9,9v21.5h-5.5v-86.6h5.5v43.4l-.4,16.6h.3Z"/>
          <path class="cls-5" d="M642.1,1469.7c0,5.4-2.1,9.6-6.2,12.5-4.1,2.9-10,4.4-17.5,4.4s-14.5-1.2-19.3-3.7v-6c6.1,3,12.5,4.6,19.3,4.6s10.5-1,13.6-3c3.1-2,4.6-4.6,4.6-7.9s-1.2-5.6-3.7-7.7c-2.5-2.1-6.5-4.1-12.2-6.1-6-2.2-10.3-4.1-12.7-5.6-2.4-1.6-4.3-3.4-5.5-5.3-1.2-2-1.9-4.4-1.9-7.3,0-4.5,1.9-8.1,5.7-10.7,3.8-2.6,9.1-3.9,15.9-3.9s12.7,1.2,18.6,3.7l-2.1,5c-5.9-2.4-11.4-3.7-16.5-3.7s-8.8.8-11.7,2.4c-2.9,1.6-4.3,3.9-4.3,6.8s1.1,5.7,3.4,7.6c2.2,1.9,6.6,4,13.2,6.3,5.5,2,9.4,3.7,11.9,5.3,2.5,1.6,4.3,3.4,5.6,5.4,1.2,2,1.9,4.4,1.9,7.1Z"/>
          <path class="cls-5" d="M766.4,1464.4c0,6.8-2.5,12.2-7.5,16.1-5,4-11.6,6-19.9,6s-17.6-1.1-22.9-3.3v-5.7c5.9,2.5,13.3,3.7,22.4,3.7s12-1.5,15.9-4.6c3.9-3.1,5.9-7.1,5.9-12s-.6-5.6-1.9-7.7c-1.3-2-3.4-3.9-6.3-5.5-2.9-1.7-7.2-3.5-12.9-5.4-8.3-2.9-14-5.9-17.2-9.3-3.2-3.3-4.8-7.7-4.8-13.3s2.4-11,7.1-14.9c4.8-3.8,10.9-5.8,18.4-5.8s14.8,1.4,21.5,4.3l-2.1,4.9c-6.8-2.8-13.2-4.2-19.4-4.2s-10.8,1.4-14.4,4.2c-3.6,2.8-5.3,6.6-5.3,11.4s.5,5.5,1.6,7.4c1.1,1.9,2.9,3.7,5.4,5.2,2.5,1.5,6.8,3.4,12.8,5.5,6.3,2.2,11.1,4.3,14.3,6.4,3.2,2.1,5.5,4.4,7,7,1.5,2.6,2.2,5.8,2.2,9.5Z"/>
          <path class="cls-5" d="M804,1458.9l30.9-33.9h6.7l-23.8,25.8,25.9,34.7h-6.6l-23-30.5-9.9,9v21.5h-5.5v-86.6h5.5v43.4l-.4,16.6h.3Z"/>
          <path class="cls-5" d="M920.2,1455.1c0,9.9-2.4,17.6-7.2,23.1-4.8,5.5-11.4,8.3-19.8,8.3s-11.8-1.8-16.2-5.5l-4.8,6.3-4-3.2,5.2-6.7c-4.5-5.7-6.7-13.1-6.7-22.4s2.4-17.6,7.2-23.1c4.8-5.5,11.4-8.3,19.7-8.3s12.2,1.9,16.7,5.8l5.3-6.9,4.1,3.1-5.8,7.6c4.2,5.5,6.2,12.7,6.2,21.8ZM872.4,1455.1c0,7.4,1.4,13.4,4.3,17.9l30.2-39.2c-3.6-3.3-8.2-5-13.7-5s-11.8,2.3-15.4,6.9-5.4,11.1-5.4,19.4ZM914.4,1455.1c0-7-1.3-12.8-4-17.2l-30.2,39.1c3.5,3,7.9,4.6,13.2,4.6s11.8-2.3,15.5-7c3.7-4.7,5.5-11.1,5.5-19.4Z"/>
          <path class="cls-5" d="M995.5,1485.4v-39.2c0-6.1-1.3-10.5-3.8-13.3-2.6-2.8-6.5-4.1-11.9-4.1s-12.5,1.8-15.9,5.5c-3.4,3.7-5,9.6-5,17.8v33.4h-5.5v-60.5h4.7l1.1,8.3h.3c3.9-6.3,10.9-9.5,21-9.5s20.6,7.4,20.6,22.1v39.6h-5.5Z"/>
          <path class="cls-5" d="M1079.1,1485.4v-39.2c0-6.1-1.3-10.5-3.8-13.3-2.6-2.8-6.5-4.1-11.9-4.1s-12.5,1.8-15.9,5.5c-3.4,3.7-5,9.6-5,17.8v33.4h-5.5v-86.6h5.5v27.5l-.3,7.7h.4c2.3-3.6,5.1-6.3,8.6-7.9s7.7-2.4,12.9-2.4c13.7,0,20.6,7.4,20.6,22.1v39.6h-5.5Z"/>
          <path class="cls-5" d="M1145,1486.5c-8.8,0-15.6-2.7-20.6-8.1-4.9-5.4-7.4-13-7.4-22.8s2.4-17.4,7.1-23.2c4.7-5.8,11.1-8.7,19.2-8.7s12.7,2.5,16.9,7.5c4.1,5,6.2,11.7,6.2,20.3v4.5h-43.6c0,8.3,2,14.7,5.8,19s9.2,6.6,16.3,6.6,6.5-.2,9.1-.7c2.6-.5,5.9-1.5,9.9-3.1v5c-3.4,1.5-6.6,2.5-9.5,3-2.9.5-6.1.8-9.6.8ZM1143.4,1428.7c-5.8,0-10.5,1.9-14,5.8-3.5,3.8-5.6,9.4-6.2,16.6h37.4c0-7-1.5-12.5-4.6-16.4-3-4-7.3-5.9-12.6-5.9Z"/>
          <path class="cls-5" d="M1221.7,1423.8c4.4,0,8.2.8,11.4,2.4,3.2,1.6,6,4.3,8.6,8.2h.3c-.2-4.7-.3-9.3-.3-13.7v-21.8h5.5v86.6h-3.6l-1.4-9.2h-.4c-4.6,6.9-11.2,10.3-19.8,10.3s-14.7-2.6-19.1-7.8c-4.4-5.2-6.6-12.8-6.6-22.7s2.2-18.5,6.6-24c4.4-5.5,10.7-8.3,19.1-8.3ZM1221.7,1428.8c-6.6,0-11.6,2.3-14.9,7-3.3,4.6-5,11.4-5,20.2,0,17.1,6.7,25.7,20,25.7s11.8-2,15-6c3.2-4,4.8-10.5,4.8-19.6v-.9c0-9.3-1.6-16.1-4.7-20.2-3.1-4.1-8.2-6.1-15.2-6.1Z"/>
          <path class="cls-5" d="M1321.3,1469.7c0,5.4-2.1,9.6-6.2,12.5-4.1,2.9-10,4.4-17.5,4.4s-14.5-1.2-19.3-3.7v-6c6.1,3,12.5,4.6,19.3,4.6s10.5-1,13.6-3,4.6-4.6,4.6-7.9-1.2-5.6-3.7-7.7c-2.5-2.1-6.5-4.1-12.2-6.1-6-2.2-10.3-4.1-12.7-5.6-2.4-1.6-4.3-3.4-5.5-5.3-1.2-2-1.9-4.4-1.9-7.3,0-4.5,1.9-8.1,5.7-10.7,3.8-2.6,9.1-3.9,15.9-3.9s12.7,1.2,18.6,3.7l-2.1,5c-5.9-2.4-11.4-3.7-16.5-3.7s-8.8.8-11.7,2.4c-2.9,1.6-4.3,3.9-4.3,6.8s1.1,5.7,3.4,7.6c2.2,1.9,6.6,4,13.2,6.3,5.5,2,9.4,3.7,11.9,5.3,2.5,1.6,4.3,3.4,5.6,5.4,1.2,2,1.9,4.4,1.9,7.1Z"/>
          <path class="cls-5" d="M1358.7,1458.9l30.9-33.9h6.7l-23.8,25.8,25.9,34.7h-6.6l-23-30.5-9.9,9v21.5h-5.5v-86.6h5.5v43.4l-.4,16.6h.3Z"/>
          <path class="cls-5" d="M1430.3,1485.4h-5.5v-86.6h5.5v86.6Z"/>
          <path class="cls-5" d="M1466.2,1408.1c0-3.6,1.2-5.3,3.5-5.3s2,.5,2.7,1.4,1,2.2,1,4-.3,3-1,3.9c-.6,1-1.5,1.4-2.7,1.4-2.3,0-3.5-1.8-3.5-5.4ZM1472.5,1485.4h-5.5v-60.5h5.5v60.5Z"/>
          <path class="cls-5" d="M1551.3,1485.4v-39.2c0-6.1-1.3-10.5-3.8-13.3-2.6-2.8-6.5-4.1-11.9-4.1s-12.5,1.8-15.9,5.5c-3.4,3.7-5,9.6-5,17.8v33.4h-5.5v-60.5h4.7l1.1,8.3h.3c3.9-6.3,10.9-9.5,21-9.5s20.6,7.4,20.6,22.1v39.6h-5.5Z"/>
          <path class="cls-5" d="M1592,1408.1c0-3.6,1.2-5.3,3.5-5.3s2,.5,2.7,1.4,1,2.2,1,4-.3,3-1,3.9c-.6,1-1.5,1.4-2.7,1.4-2.3,0-3.5-1.8-3.5-5.4ZM1598.3,1485.4h-5.5v-60.5h5.5v60.5Z"/>
          <path class="cls-5" d="M1640.4,1458.9l30.9-33.9h6.7l-23.8,25.8,25.9,34.7h-6.6l-23-30.5-9.9,9v21.5h-5.5v-86.6h5.5v43.4l-.4,16.6h.3Z"/>
        </g>
      </g>
      <g>
        <g>
          <path class="cls-1" d="M476.5,989c0,92.7-25.7,163.6-77.2,212.7-51.5,49.1-125.6,73.6-222.4,73.6H19.7v-561.7h173.7c89.4,0,158.9,24.1,208.6,72.2,49.7,48.2,74.5,115.9,74.5,203.2ZM379.6,992.1c0-134.5-62.9-201.7-188.6-201.7h-79.5v407.6h65.3c135.2,0,202.9-68.6,202.9-205.9Z"/>
          <path class="cls-1" d="M954.8,1122.7c0,49.9-18.1,89.1-54.2,117.6-36.1,28.4-85.9,42.6-149.5,42.6s-115.5-9.9-156-29.6v-86.8c25.6,12,52.8,21.5,81.6,28.4,28.8,6.9,55.6,10.4,80.5,10.4,36.4,0,63.2-6.9,80.5-20.7,17.3-13.8,25.9-32.4,25.9-55.7s-7.9-38.8-23.8-53.4c-15.9-14.6-48.7-31.9-98.4-51.9-51.2-20.7-87.3-44.4-108.3-71.1-21-26.6-31.5-58.6-31.5-96s16.6-83.8,49.9-110.6c33.3-26.9,78-40.3,134.1-40.3s107.3,11.8,160.6,35.3l-29.2,74.9c-49.9-21-94.5-31.5-133.7-31.5s-52.3,6.5-67.6,19.4c-15.4,12.9-23.1,30-23.1,51.3s3.1,27.1,9.2,37.5c6.1,10.4,16.3,20.2,30.4,29.4,14.1,9.2,39.4,21.4,76.1,36.5,41.2,17.2,71.5,33.2,90.7,48,19.2,14.9,33.3,31.6,42.3,50.3,9,18.7,13.4,40.7,13.4,66.1Z"/>
          <path class="cls-1" d="M1526.1,1275.2h-106.4l-176.3-254.3-54.2,44.2v210.2h-91.8v-561.7h91.8v268.2c25.1-30.7,50.1-60.3,74.9-88.7l151.8-179.4h104.5c-98.1,115.3-168.4,197.3-210.9,246.3l216.7,315.4Z"/>
        </g>
        <path class="cls-1" d="M2062,1177.4c-.5,75.7-13.6,148.9-43.6,218.8-13.1,30.6-37.3,78.9-63.9,117.6-45.7,65.5-97.9,125.3-156.9,179-1-.6-2-1.2-3-1.7,7.9-23.5,16.3-46.9,23.7-70.5,23.5-74.9,45.7-150.2,51.7-229.1,1.2-27.3.2-40.4-6.2-59.8-6.5-19.8-21-29.5-42.1-27.9-24.4,1.8-47.2,10.3-70.3,17.5-24.4,7.6-48.5,16.5-74.6,16.3-37-.3-53.7-19.1-49.2-55.5,1.3-10.7,2.6-18.7,4.6-31.9,6.1-43.4-10.7-93.1-10.8-96,7.5-23.7-1.5-39.1-21.7-52.8-30.5-20.6-30-25.8-9.1-55.6,25.5-36.4,52.8-71.5,74-110.8,14.7-27.3,19.1-55.1,13.8-85.7-21.4-125.5-3.4-245,58.8-356.7,20.4-36.6,45.1-70.3,74.9-99.9,2.7-2.7,5.3-7.2,10-5.1,3.8,1.7,3.3,6.1,3.5,9.6,4.6,76.7,27.1,149,54.1,220.1,29.8,78.5,66.4,154.2,98.4,231.8,25.7,62.3,50.5,124.9,64.5,191.1,8.9,36.4,19.8,88,19.2,137.3Z"/>
        <g>
          <path class="cls-1" d="M85.2,1443.9c0,13.7-3.6,24-10.7,31-7.2,7-17.7,10.5-31.5,10.5h-19.5v-81.3h22c13,0,22.9,3.4,29.6,10.2,6.8,6.8,10.2,16.7,10.2,29.7ZM79,1444.1c0-11.6-3-20.4-8.9-26.3-5.9-5.9-14.6-8.8-26.1-8.8h-15v71.3h13.5c24.3,0,36.4-12.1,36.4-36.2Z"/>
          <path class="cls-1" d="M155.7,1485.3l-1.4-9.6h-.4c-3,3.9-6.2,6.6-9.4,8.3-3.2,1.6-7,2.4-11.4,2.4s-10.6-1.5-13.9-4.6c-3.3-3-5-7.3-5-12.6s2.5-10.5,7.4-13.7c4.9-3.3,12-5,21.3-5.2l11.5-.3v-4c0-5.7-1.2-10.1-3.5-13-2.3-2.9-6.1-4.4-11.3-4.4s-11.4,1.6-17.4,4.7l-2.1-4.8c6.6-3.1,13.2-4.7,19.7-4.7s11.6,1.7,14.9,5.2c3.3,3.5,4.9,8.8,4.9,16.1v40.2h-4.1ZM133.4,1481.4c6.5,0,11.5-1.8,15.3-5.5,3.7-3.7,5.6-8.8,5.6-15.4v-6l-10.6.4c-8.5.4-14.6,1.7-18.2,4-3.6,2.2-5.4,5.7-5.4,10.5s1.2,6.7,3.5,8.8c2.3,2.1,5.6,3.1,9.8,3.1Z"/>
          <path class="cls-1" d="M237.9,1485.3v-39.2c0-6.1-1.3-10.5-3.8-13.3-2.6-2.8-6.5-4.1-11.9-4.1s-12.5,1.8-15.9,5.5c-3.4,3.7-5,9.6-5,17.8v33.4h-5.5v-60.5h4.7l1.1,8.3h.3c3.9-6.3,10.9-9.5,21-9.5s20.6,7.4,20.6,22.1v39.6h-5.5Z"/>
          <path class="cls-1" d="M354.9,1485.3v-39.7c0-5.9-1.1-10.2-3.4-12.9-2.3-2.7-5.8-4.1-10.6-4.1s-10.8,1.7-13.7,5.1c-3,3.4-4.5,8.8-4.5,16.1v35.4h-5.6v-41.3c0-10.2-4.7-15.3-14-15.3s-11,1.8-13.9,5.5c-2.9,3.7-4.3,9.6-4.3,17.7v33.4h-5.5v-60.5h4.6l1.2,8.3h.3c1.7-3,4-5.3,7.1-7s6.5-2.5,10.2-2.5c9.5,0,15.7,3.6,18.4,10.7h.2c2-3.5,4.6-6.1,7.9-8,3.3-1.9,7.1-2.8,11.3-2.8,6.6,0,11.6,1.8,14.9,5.3,3.3,3.5,5,9.1,5,16.8v39.6h-5.5Z"/>
          <path class="cls-1" d="M433.1,1485.3l-1.4-9.6h-.4c-3,3.9-6.2,6.6-9.4,8.3-3.2,1.6-7,2.4-11.4,2.4s-10.6-1.5-13.9-4.6c-3.3-3-5-7.3-5-12.6s2.5-10.5,7.4-13.7c4.9-3.3,12-5,21.3-5.2l11.5-.3v-4c0-5.7-1.2-10.1-3.5-13-2.3-2.9-6.1-4.4-11.3-4.4s-11.4,1.6-17.4,4.7l-2.1-4.8c6.6-3.1,13.2-4.7,19.7-4.7s11.6,1.7,14.9,5.2c3.3,3.5,4.9,8.8,4.9,16.1v40.2h-4.1ZM410.8,1481.4c6.5,0,11.5-1.8,15.3-5.5s5.6-8.8,5.6-15.4v-6l-10.6.4c-8.5.4-14.5,1.7-18.2,4-3.6,2.2-5.4,5.7-5.4,10.5s1.2,6.7,3.5,8.8c2.3,2.1,5.6,3.1,9.8,3.1Z"/>
          <path class="cls-1" d="M496.9,1423.7c2.6,0,5.3.3,8.2.8l-1.1,5.3c-2.5-.6-5.1-.9-7.8-.9-5.2,0-9.4,2.2-12.7,6.6-3.3,4.4-5,9.9-5,16.6v33.4h-5.5v-60.5h4.7l.6,10.9h.4c2.5-4.5,5.1-7.6,8-9.4,2.8-1.8,6.2-2.7,10.2-2.7Z"/>
          <path class="cls-1" d="M539.3,1458.8l30.9-33.9h6.7l-23.8,25.8,25.9,34.7h-6.6l-23-30.5-9.9,9v21.5h-5.5v-86.6h5.5v43.4l-.4,16.6h.3Z"/>
          <path class="cls-1" d="M642.9,1469.6c0,5.4-2.1,9.6-6.2,12.5-4.1,2.9-10,4.4-17.5,4.4s-14.5-1.2-19.3-3.7v-6c6.1,3,12.5,4.6,19.3,4.6s10.5-1,13.6-3c3.1-2,4.6-4.6,4.6-7.9s-1.2-5.6-3.7-7.7c-2.5-2.1-6.5-4.1-12.2-6.1-6-2.2-10.3-4.1-12.7-5.6-2.4-1.6-4.3-3.4-5.5-5.3-1.2-2-1.9-4.4-1.9-7.3,0-4.5,1.9-8.1,5.7-10.7,3.8-2.6,9.1-3.9,15.9-3.9s12.7,1.2,18.6,3.7l-2.1,5c-5.9-2.4-11.4-3.7-16.5-3.7s-8.8.8-11.7,2.4-4.3,3.9-4.3,6.8,1.1,5.7,3.4,7.6c2.2,1.9,6.6,4,13.2,6.3,5.5,2,9.4,3.7,11.9,5.3,2.5,1.6,4.3,3.4,5.6,5.4,1.2,2,1.9,4.4,1.9,7.1Z"/>
          <path class="cls-1" d="M767.2,1464.4c0,6.8-2.5,12.2-7.5,16.1-5,4-11.6,6-19.9,6s-17.6-1.1-22.9-3.3v-5.7c5.9,2.5,13.3,3.7,22.4,3.7s12-1.5,15.9-4.6,5.9-7.1,5.9-12-.6-5.6-1.9-7.7c-1.3-2-3.4-3.9-6.3-5.5-2.9-1.7-7.2-3.5-12.9-5.4-8.3-2.9-14.1-5.9-17.2-9.3-3.2-3.3-4.8-7.7-4.8-13.3s2.4-11,7.1-14.9c4.8-3.8,10.9-5.8,18.4-5.8s14.8,1.4,21.5,4.3l-2.1,4.9c-6.8-2.8-13.2-4.2-19.4-4.2s-10.8,1.4-14.4,4.2c-3.6,2.8-5.3,6.6-5.3,11.4s.5,5.5,1.6,7.4c1.1,1.9,2.9,3.7,5.4,5.2,2.5,1.5,6.8,3.4,12.8,5.5,6.3,2.2,11.1,4.3,14.3,6.4s5.5,4.4,7,7c1.5,2.6,2.2,5.8,2.2,9.5Z"/>
          <path class="cls-1" d="M804.8,1458.8l30.9-33.9h6.7l-23.8,25.8,25.9,34.7h-6.6l-23-30.5-9.9,9v21.5h-5.5v-86.6h5.5v43.4l-.4,16.6h.3Z"/>
          <path class="cls-1" d="M921,1455c0,9.9-2.4,17.6-7.2,23.1-4.8,5.5-11.4,8.3-19.8,8.3s-11.8-1.8-16.2-5.5l-4.8,6.3-4-3.2,5.2-6.7c-4.5-5.7-6.7-13.1-6.7-22.4s2.4-17.6,7.2-23.1c4.8-5.5,11.4-8.3,19.7-8.3s12.2,1.9,16.7,5.8l5.3-6.9,4.1,3.1-5.8,7.6c4.2,5.5,6.2,12.7,6.2,21.8ZM873.3,1455c0,7.4,1.4,13.4,4.3,17.9l30.2-39.2c-3.6-3.3-8.2-5-13.7-5s-11.8,2.3-15.4,6.9c-3.6,4.6-5.4,11.1-5.4,19.4ZM915.2,1455c0-7-1.3-12.8-4-17.2l-30.2,39.1c3.5,3,7.9,4.6,13.2,4.6s11.8-2.3,15.5-7,5.5-11.1,5.5-19.4Z"/>
          <path class="cls-1" d="M996.4,1485.3v-39.2c0-6.1-1.3-10.5-3.8-13.3-2.6-2.8-6.5-4.1-11.9-4.1s-12.5,1.8-15.9,5.5c-3.4,3.7-5,9.6-5,17.8v33.4h-5.5v-60.5h4.7l1.1,8.3h.3c3.9-6.3,10.9-9.5,21-9.5s20.6,7.4,20.6,22.1v39.6h-5.5Z"/>
          <path class="cls-1" d="M1080,1485.3v-39.2c0-6.1-1.3-10.5-3.8-13.3-2.6-2.8-6.5-4.1-11.9-4.1s-12.5,1.8-15.9,5.5c-3.4,3.7-5,9.6-5,17.8v33.4h-5.5v-86.6h5.5v27.5l-.3,7.7h.4c2.3-3.6,5.1-6.3,8.6-7.9s7.7-2.4,12.9-2.4c13.7,0,20.6,7.4,20.6,22.1v39.6h-5.5Z"/>
          <path class="cls-1" d="M1145.9,1486.5c-8.8,0-15.6-2.7-20.6-8.1-4.9-5.4-7.4-13-7.4-22.8s2.4-17.4,7.1-23.2c4.7-5.8,11.1-8.7,19.2-8.7s12.7,2.5,16.9,7.5c4.1,5,6.2,11.7,6.2,20.3v4.5h-43.6c0,8.3,2,14.7,5.8,19s9.2,6.6,16.3,6.6,6.5-.2,9.1-.7c2.6-.5,5.9-1.5,9.9-3.1v5c-3.4,1.5-6.6,2.5-9.5,3s-6.1.8-9.6.8ZM1144.2,1428.6c-5.8,0-10.5,1.9-14,5.8-3.5,3.8-5.6,9.4-6.2,16.6h37.4c0-7-1.5-12.5-4.6-16.4-3-4-7.3-5.9-12.6-5.9Z"/>
          <path class="cls-1" d="M1222.5,1423.7c4.4,0,8.2.8,11.4,2.4,3.2,1.6,6,4.3,8.6,8.2h.3c-.2-4.7-.3-9.3-.3-13.7v-21.8h5.5v86.6h-3.6l-1.4-9.2h-.4c-4.6,6.9-11.2,10.3-19.8,10.3s-14.7-2.6-19.1-7.8c-4.4-5.2-6.6-12.8-6.6-22.7s2.2-18.5,6.6-24c4.4-5.5,10.7-8.3,19.1-8.3ZM1222.5,1428.7c-6.6,0-11.6,2.3-14.9,7-3.3,4.6-5,11.4-5,20.2,0,17.1,6.7,25.7,20,25.7s11.8-2,15-6c3.2-4,4.8-10.5,4.8-19.6v-.9c0-9.3-1.6-16.1-4.7-20.2-3.1-4.1-8.2-6.1-15.2-6.1Z"/>
          <path class="cls-1" d="M1322.1,1469.6c0,5.4-2.1,9.6-6.2,12.5-4.1,2.9-10,4.4-17.5,4.4s-14.5-1.2-19.3-3.7v-6c6.1,3,12.5,4.6,19.3,4.6s10.5-1,13.6-3,4.6-4.6,4.6-7.9-1.2-5.6-3.7-7.7c-2.5-2.1-6.5-4.1-12.2-6.1-6-2.2-10.3-4.1-12.7-5.6-2.4-1.6-4.3-3.4-5.5-5.3-1.2-2-1.9-4.4-1.9-7.3,0-4.5,1.9-8.1,5.7-10.7,3.8-2.6,9.1-3.9,15.9-3.9s12.7,1.2,18.6,3.7l-2.1,5c-5.9-2.4-11.4-3.7-16.5-3.7s-8.8.8-11.7,2.4c-2.9,1.6-4.3,3.9-4.3,6.8s1.1,5.7,3.4,7.6c2.2,1.9,6.6,4,13.2,6.3,5.5,2,9.4,3.7,11.9,5.3,2.5,1.6,4.3,3.4,5.6,5.4,1.2,2,1.9,4.4,1.9,7.1Z"/>
          <path class="cls-1" d="M1359.5,1458.8l30.9-33.9h6.7l-23.8,25.8,25.9,34.7h-6.6l-23-30.5-9.9,9v21.5h-5.5v-86.6h5.5v43.4l-.4,16.6h.3Z"/>
          <path class="cls-1" d="M1431.2,1485.3h-5.5v-86.6h5.5v86.6Z"/>
          <path class="cls-1" d="M1467,1408.1c0-3.6,1.2-5.3,3.5-5.3s2,.5,2.7,1.4,1,2.2,1,4-.3,3-1,3.9c-.6,1-1.5,1.4-2.7,1.4-2.3,0-3.5-1.8-3.5-5.4ZM1473.3,1485.3h-5.5v-60.5h5.5v60.5Z"/>
          <path class="cls-1" d="M1552.2,1485.3v-39.2c0-6.1-1.3-10.5-3.8-13.3-2.6-2.8-6.5-4.1-11.9-4.1s-12.5,1.8-15.9,5.5c-3.4,3.7-5,9.6-5,17.8v33.4h-5.5v-60.5h4.7l1.1,8.3h.3c3.9-6.3,10.9-9.5,21-9.5s20.6,7.4,20.6,22.1v39.6h-5.5Z"/>
          <path class="cls-1" d="M1592.8,1408.1c0-3.6,1.2-5.3,3.5-5.3s2,.5,2.7,1.4,1,2.2,1,4-.3,3-1,3.9c-.6,1-1.5,1.4-2.7,1.4-2.3,0-3.5-1.8-3.5-5.4ZM1599.1,1485.3h-5.5v-60.5h5.5v60.5Z"/>
          <path class="cls-1" d="M1641.2,1458.8l30.9-33.9h6.7l-23.8,25.8,25.9,34.7h-6.6l-23-30.5-9.9,9v21.5h-5.5v-86.6h5.5v43.4l-.4,16.6h.3Z"/>
        </g>
      </g>
      <g class="cls-6">
        <g id="Layer_1-2" data-name="Layer_1">
          <g class="cls-3">
            <text class="cls-2" transform="translate(2699.7 1819.2)"><tspan x="0" y="0">DSK</tspan></text>
          </g>
          <path class="cls-5" d="M4725.8,1725.6c-.5,72.5-13,142.6-41.7,209.5-12.6,29.3-35.7,75.6-61.2,112.6-43.8,62.7-93.7,119.9-150.2,171.4-1-.6-1.9-1.1-2.9-1.7,7.6-22.5,15.6-44.9,22.7-67.5,22.5-71.7,43.7-143.8,49.5-219.4,1.2-26.1.2-38.7-5.9-57.3-6.2-19-20.1-28.2-40.3-26.7-23.3,1.7-45.2,9.8-67.3,16.8-23.3,7.3-46.4,15.8-71.4,15.6-35.4-.3-51.4-18.3-47.1-53.1,1.3-10.2,2.5-17.9,4.4-30.6,5.8-41.5-10.2-89.2-10.3-91.9,7.2-22.7-1.4-37.4-20.8-50.5-29.2-19.7-28.7-24.7-8.7-53.3,24.4-34.8,50.6-68.4,70.9-106,14.1-26.1,18.3-52.7,13.3-82.1-20.5-120.2-3.3-234.5,56.3-341.5,19.5-35,43.2-67.3,71.7-95.6,2.6-2.5,5-6.9,9.5-4.9,3.6,1.6,3.2,5.8,3.4,9.2,4.4,73.4,25.9,142.6,51.8,210.7,28.6,75.2,63.6,147.6,94.2,221.9,24.6,59.6,48.3,119.5,61.7,183,8.6,34.9,18.9,84.2,18.4,131.4h0Z"/>
          <g class="cls-3">
            <text class="cls-4" transform="translate(2763.3 2020.4)"><tspan x="0" y="0">Danmarks Skønhedsklinik</tspan></text>
          </g>
          <circle class="cls-5" cx="6411.5" cy="2913" r="914.9"/>
        </g>
      </g>
    </g>
  </g>
</svg>